<svg width="1304" height="754" viewBox="0 0 1304 754" fill="none" xmlns="http://www.w3.org/2000/svg">
<path d="M1304 0H0V753.42H1304V0Z" fill="#012169"/>
<mask id="mask0_5_100" style="mask-type:luminance" maskUnits="userSpaceOnUse" x="0" y="0" width="652" height="326">
<path d="M0 0H652V326H0V0Z" fill="white"/>
</mask>
<g mask="url(#mask0_5_100)">
<path d="M0 0L652 326L0 0ZM652 0L0 326L652 0Z" fill="black"/>
<path d="M0 0L652 326M652 0L0 326" stroke="white" stroke-width="64"/>
</g>
<mask id="mask1_5_100" style="mask-type:luminance" maskUnits="userSpaceOnUse" x="0" y="0" width="652" height="326">
<path d="M0 0V163H652V326L0 0ZM652 0H326V326H0L652 0Z" fill="white"/>
</mask>
<g mask="url(#mask1_5_100)">
<path d="M0 0L652 326L0 0ZM652 0L0 326L652 0Z" fill="black"/>
<path d="M0 0L652 326M652 0L0 326" stroke="#E4002B" stroke-width="42.6667"/>
</g>
<path d="M326 0V326V0ZM0 163H652H0Z" fill="black"/>
<path d="M326 0V326M0 163H652" stroke="white" stroke-width="106.667"/>
<path d="M326 0V326V0ZM0 163H652H0Z" fill="black"/>
<path d="M326 0V326M0 163H652" stroke="#E4002B" stroke-width="64"/>
<path d="M326 391.2L344.86 449.838L402.463 428.023L368.377 479.328L421.348 510.763L359.984 516.101L368.434 577.115L326 532.467L283.566 577.115L292.016 516.101L230.652 510.763L283.623 479.328L249.537 428.023L307.141 449.838L326 391.2Z" fill="white"/>
<path d="M978 496.762L986.981 524.685L1014.41 514.297L998.18 538.728L1023.4 553.697L994.183 556.239L998.207 585.293L978 564.032L957.794 585.293L961.817 556.239L932.596 553.697L957.821 538.728L941.589 514.297L969.019 524.685L978 496.762Z" fill="white"/>
<path d="M815 238.678L823.981 266.601L851.411 256.213L835.18 280.644L860.404 295.613L831.183 298.155L835.207 327.209L815 305.948L794.794 327.209L798.817 298.155L769.596 295.613L794.821 280.644L778.589 256.213L806.019 266.601L815 238.678Z" fill="white"/>
<path d="M978 62.0952L986.981 90.018L1014.41 79.6298L998.18 104.061L1023.4 119.03L994.183 121.572L998.207 150.626L978 129.365L957.794 150.626L961.817 121.572L932.596 119.03L957.821 104.061L941.589 79.6298L969.019 90.018L978 62.0952Z" fill="white"/>
<path d="M1122.89 195.212L1131.87 223.135L1159.3 212.747L1143.07 237.178L1168.29 252.146L1139.07 254.689L1143.1 283.743L1122.89 262.482L1102.68 283.743L1106.71 254.689L1077.49 252.146L1102.71 237.178L1086.48 212.747L1113.91 223.135L1122.89 195.212Z" fill="white"/>
<path d="M1043.2 326L1050.3 343.399L1069.04 344.772L1054.68 356.898L1059.17 375.145L1043.2 365.241L1027.23 375.145L1031.72 356.898L1017.36 344.772L1036.1 343.399L1043.2 326Z" fill="white"/>
</svg>
